<?xml version="1.0" encoding="UTF-8"?>
<svg width="22px" height="22px" viewBox="0 0 22 22" version="1.1" xmlns="http://www.w3.org/2000/svg" xmlns:xlink="http://www.w3.org/1999/xlink">
    <title>首页</title>
    <defs>
        <linearGradient x1="50%" y1="0%" x2="50%" y2="100%" id="linearGradient-1">
            <stop stop-color="#FFFFFF" offset="0%"></stop>
            <stop stop-color="#57ECEF" offset="52.1880463%"></stop>
            <stop stop-color="#13778E" offset="100%"></stop>
        </linearGradient>
    </defs>
    <g id="工程治理模块" stroke="none" stroke-width="1" fill="none" fill-rule="evenodd">
        <g id="画板" transform="translate(-24.000000, -99.000000)" fill="url(#linearGradient-1)" fill-rule="nonzero">
            <g id="编组-2" transform="translate(0.000000, -1.000000)">
                <g id="编组-3备份" transform="translate(24.000000, 100.000000)">
                    <g id="详情" transform="translate(3.000000, 3.000000)">
                        <path d="M7.18124739,0.332691833 L0.208045928,6.95269336 C-0.0535632944,7.19301922 -0.0707761338,7.59987611 0.169598792,7.86143066 C0.406767889,8.11949738 0.806935133,8.14021019 1.06949035,7.90801034 L1.18037306,7.80275317 L1.18037306,14.7120993 C1.17948848,15.4225019 1.75478278,15.9991135 2.46532998,16 C2.46586404,16 2.46639811,16 2.46693217,16 L6.21092803,16 L6.21092803,12.1274899 C6.21028165,11.6272595 6.6153312,11.2212436 7.11563251,11.220598 L8.87895496,11.2205973 C9.37925625,11.2203758 9.78501047,11.6256876 9.78523095,12.1258874 L9.78523024,16 L13.6180893,16 C14.3286365,16.0002201 14.9048288,15.4245048 14.9050508,14.7141018 L14.9050499,7.88718993 C15.1908631,8.14573034 15.5963655,8.12611969 15.8341429,7.8611758 C16.0722486,7.59755295 16.0515191,7.19086176 15.7878431,6.95280435 L8.90574674,0.333087628 C8.41654695,-0.110963222 7.67044042,-0.110963222 7.18124739,0.332691833 Z" id="路径"></path>
                    </g>
                </g>
            </g>
        </g>
    </g>
</svg>